<?xml version="1.0" encoding="UTF-8"?>
<svg xmlns="http://www.w3.org/2000/svg" xmlns:xlink="http://www.w3.org/1999/xlink" width="16px" height="7px" viewBox="0 0 15 7" version="1.1">
<defs>
<linearGradient id="linear0" gradientUnits="userSpaceOnUse" x1="39.3424" y1="56.6702" x2="78.4973" y2="56.6702" gradientTransform="matrix(0.108696,0,0,0.112903,0,0)">
<stop offset="0" style="stop-color:rgb(54.117647%,6.27451%,0.784314%);stop-opacity:1;"/>
<stop offset="0.64" style="stop-color:rgb(89.019608%,2.352941%,7.45098%);stop-opacity:1;"/>
<stop offset="1" style="stop-color:rgb(89.019608%,2.352941%,7.45098%);stop-opacity:1;"/>
</linearGradient>
<linearGradient id="linear1" gradientUnits="userSpaceOnUse" x1="19.1358" y1="45.6397" x2="150.765" y2="45.6397" gradientTransform="matrix(0.108696,0,0,0.112903,0,0)">
<stop offset="0" style="stop-color:rgb(0%,45.882353%,74.901961%);stop-opacity:1;"/>
<stop offset="0.36" style="stop-color:rgb(0%,54.509804%,82.352941%);stop-opacity:1;"/>
<stop offset="0.71" style="stop-color:rgb(0%,60.392157%,87.45098%);stop-opacity:1;"/>
<stop offset="1" style="stop-color:rgb(0%,62.352941%,89.019608%);stop-opacity:1;"/>
</linearGradient>
<linearGradient id="linear2" gradientUnits="userSpaceOnUse" x1="-58.5576" y1="30.9116" x2="197.242" y2="30.9116" gradientTransform="matrix(0.108696,0,0,0.112903,0,0)">
<stop offset="0" style="stop-color:rgb(54.117647%,6.27451%,0.784314%);stop-opacity:1;"/>
<stop offset="0.64" style="stop-color:rgb(89.019608%,2.352941%,7.45098%);stop-opacity:1;"/>
<stop offset="1" style="stop-color:rgb(89.019608%,2.352941%,7.45098%);stop-opacity:1;"/>
</linearGradient>
</defs>
<g id="surface1">
<path style=" stroke:none;fill-rule:evenodd;fill:url(#linear0);" d="M 8.53125 6.90625 C 7.625 5.746094 5.945312 5.546875 4.726562 6.480469 C 4.5625 6.605469 4.410156 6.75 4.277344 6.90625 L 4.679688 6.90625 C 5.480469 6.324219 6.53125 6.355469 7.324219 6.90625 Z M 8.53125 6.90625 "/>
<path style=" stroke:none;fill-rule:evenodd;fill:url(#linear1);" d="M 10.742188 5.386719 C 9.199219 3.199219 6.203125 2.75 4.074219 4.378906 C 3.25 5.007812 2.640625 5.894531 2.328125 6.90625 L 2.835938 6.90625 C 3.117188 6.292969 3.539062 5.761719 4.066406 5.359375 C 5.835938 4.007812 8.335938 4.398438 9.628906 6.238281 C 9.777344 6.445312 9.90625 6.671875 10.015625 6.90625 L 11.460938 6.90625 C 11.308594 6.359375 11.066406 5.84375 10.742188 5.386719 Z M 10.742188 5.386719 "/>
<path style=" stroke:none;fill-rule:evenodd;fill:url(#linear2);" d="M 13.539062 3.246094 C 11.09375 -0.21875 6.378906 -0.960938 3.042969 1.59375 C 1.425781 2.832031 0.417969 4.625 0.09375 6.542969 L 0.0234375 6.90625 L 0.570312 6.90625 C 0.90625 5.449219 1.710938 4.105469 2.957031 3.15625 C 5.753906 1.011719 9.722656 1.65625 11.789062 4.585938 C 12.28125 5.28125 12.636719 6.070312 12.835938 6.90625 L 14.921875 6.90625 L 14.878906 6.542969 C 14.6875 5.347656 14.226562 4.21875 13.539062 3.246094 Z M 13.539062 3.246094 "/>
</g>
</svg>
